<?xml version="1.0" encoding="UTF-8" standalone="no"?>
<!DOCTYPE svg PUBLIC "-//W3C//DTD SVG 1.1//EN" "http://www.w3.org/Graphics/SVG/1.1/DTD/svg11.dtd">
<svg width="100%" height="100%" viewBox="0 0 2048 2048" version="1.1" xmlns="http://www.w3.org/2000/svg" xmlns:xlink="http://www.w3.org/1999/xlink" xml:space="preserve" xmlns:serif="http://www.serif.com/" style="fill-rule:evenodd;clip-rule:evenodd;stroke-linejoin:round;stroke-miterlimit:2;">
    <g transform="matrix(0.767107,0,0,0.767107,238.483,238.483)">
        <circle cx="1024" cy="1024" r="1024" style="fill:rgb(152,224,74);"/>
    </g>
    <g transform="matrix(0.781484,0,0,0.781484,223.76,224.341)">
        <g transform="matrix(2.29442,0,0,2.29442,-1075.73,-622.573)">
            <path d="M686.39,990.939L718.24,1024L723.14,1044.84L745.189,1054.64L750.089,1070.56C761.114,1073.57 772.139,1088.69 783.163,1113.44C801.161,1142.31 868.597,1079.84 915.947,1048.23C995.837,994.899 1101.63,931.554 1176.38,937.04C1218.22,880.057 1247.87,805.264 1246.2,684.696C1227.82,597.425 1178.46,533.381 1106.56,486.251C1057.03,423.081 1017.56,349.855 975.484,279.23C968.043,279.145 963.862,284.184 968.134,302.505L933.835,436.027L838.287,452.755L598.193,319.654C594.694,353.644 598.558,377.115 606.767,394.378L652.091,563.424C551.713,751.166 556.121,848.996 707.274,915.873C716.292,922.803 709.161,975.646 686.39,990.939Z" style="fill:rgb(8,22,15);"/>
        </g>
        <g transform="matrix(2.29442,0,0,2.29442,-1075.73,-622.573)">
            <path d="M665.116,455.591L694.59,504.638L682.961,501.248L711.584,533.371L684.765,521.866L718.66,556.676L707.632,560.159L728.937,573.405L716.769,578.247L739.676,588.205L734.193,597.499L704.211,614.602L707.35,592.922L682.147,607.089L693.574,586.572L659.155,588.954L675.798,570.499L633.874,559.057L652.236,553.043L615.037,538.04L649.393,520.554L610.813,460.971L652.869,466.735L638.242,443.461L665.116,455.591Z" style="fill:rgb(233,226,200);"/>
        </g>
        <g transform="matrix(2.29442,0,0,2.29442,-1075.73,-622.573)">
            <path d="M930.294,443.461C932.41,428.074 931.681,414.262 924.571,403.981L941.546,413.778L942.925,392.705L949.868,402.976L954.227,392.925L959.555,407.77L964.463,385.582L967.457,392.17L979.774,371.752L988.505,443.461C967.037,439.144 947.817,439.528 930.294,443.461Z" style="fill:rgb(233,226,200);"/>
        </g>
    </g>
</svg>
