<svg xmlns="http://www.w3.org/2000/svg" width="1200" height="630" viewBox="0 0 1200 630" shape-rendering="crispEdges">
    <rect width="1200" height="630" fill="#0e1a13"/>
    <g fill="#f0ead6">
        <rect x="80" y="80" width="1040" height="6"/>
        <rect x="80" y="80" width="6" height="80"/>
        <rect x="1114" y="80" width="6" height="80"/>
        <rect x="80" y="544" width="1040" height="6"/>
        <rect x="80" y="470" width="6" height="80"/>
        <rect x="1114" y="470" width="6" height="80"/>
    </g>
    <g fill="#f0ead6" font-family="monospace" font-weight="700">
        <text x="120" y="160" font-size="40" letter-spacing="6">WORLDSMYTHE</text>
        <text x="120" y="220" font-size="20" letter-spacing="4" fill-opacity="0.6">[ TRANSMISSION // 191119 ]</text>
    </g>
    <g fill="#6aa67a">
        <rect x="120" y="260" width="200" height="6"/>
        <rect x="120" y="280" width="120" height="6"/>
        <rect x="120" y="300" width="160" height="6"/>
    </g>
    <g fill="#f0ead6">
        <rect x="900" y="450" width="20" height="20"/>
        <rect x="940" y="450" width="20" height="20"/>
        <rect x="920" y="470" width="20" height="20"/>
        <rect x="900" y="490" width="20" height="20"/>
        <rect x="940" y="490" width="20" height="20"/>
    </g>
</svg>
